 <svg  version="1.0" xmlns="http://www.w3.org/2000/svg"  width="300.000000pt" height="300.000000pt" viewBox="0 0 300.000000 300.000000"  preserveAspectRatio="xMidYMid meet">  <g transform="translate(0.000000,300.000000) scale(0.100000,-0.100000)" fill="#ff7400" stroke="none"> <path d="M1575 1880 c8 -57 65 -158 121 -215 29 -29 94 -79 146 -110 146 -91 177 -114 209 -157 16 -23 29 -44 29 -47 0 -4 -27 19 -60 50 -102 98 -209 148 -426 199 -183 44 -246 72 -321 146 -65 64 -83 70 -36 12 86 -106 168 -170 274 -213 35 -13 132 -40 214 -59 180 -41 247 -65 298 -107 49 -40 41 -48 -16 -15 -67 40 -182 75 -282 88 -73 9 -123 8 -270 -5 -327 -31 -402 -21 -555 68 l-45 26 30 -26 c96 -84 255 -150 397 -165 93 -9 122 -8 347 17 183 20 295 14 378 -20 46 -19 64 -22 74 -13 9 8 10 7 5 -9 -5 -14 -4 -17 4 -9 16 16 -5 68 -57 141 -50 71 -89 105 -229 197 -114 74 -190 150 -217 217 -17 42 -17 43 -12 9z m110 -339 c55 -16 95 -30 88 -30 -16 -1 -214 47 -221 54 -13 12 40 3 133 -24z m30 -121 c31 -11 -122 -31 -286 -37 -92 -4 -153 -2 -164 5 -15 8 -1 11 61 17 43 3 113 10 154 15 91 10 208 10 235 0z"/> </g> </svg> 