<?xml version="1.0" standalone="no"?>
<!DOCTYPE svg PUBLIC "-//W3C//DTD SVG 20010904//EN"
 "http://www.w3.org/TR/2001/REC-SVG-20010904/DTD/svg10.dtd">
<svg version="1.0" xmlns="http://www.w3.org/2000/svg"
 width="300.000000pt" height="300.000000pt" viewBox="0 0 300.000000 300.000000"
 preserveAspectRatio="xMidYMid meet">
<metadata>
Created by potrace 1.10, written by Peter Selinger 2001-2011
</metadata>
<g transform="translate(0.000000,300.000000) scale(0.100000,-0.100000)"
fill="#000000" stroke="none">
<path d="M1614 1888 c3 -21 19 -67 36 -104 46 -95 139 -185 274 -265 121 -71
184 -122 217 -175 17 -28 19 -38 9 -47 -10 -9 -11 -9 -5 2 5 9 4 12 -3 7 -7
-4 -10 -2 -6 7 7 18 -87 104 -165 151 -79 49 -158 77 -336 121 -229 56 -324
109 -408 225 -11 16 -9 8 5 -20 13 -25 57 -79 99 -121 118 -119 183 -147 554
-233 93 -22 166 -53 208 -87 49 -40 40 -49 -17 -15 -24 14 -86 40 -138 57
-117 40 -264 48 -477 28 -213 -20 -351 -17 -430 10 -35 12 -87 37 -115 55 -73
46 -76 48 -76 42 0 -8 97 -78 151 -110 112 -64 271 -106 408 -106 36 0 143 9
236 20 277 32 374 24 492 -39 l53 -29 -6 26 c-25 115 -125 228 -303 346 -166
109 -218 164 -253 266 -6 20 -7 18 -4 -12z m36 -513 c-93 -19 -296 -30 -304
-17 -4 7 21 13 71 17 43 4 83 8 88 10 6 2 55 3 110 3 l100 0 -65 -13z"/>
</g>
</svg>
